<?xml version="1.0" encoding="utf-8"?>
<!-- Generator: Adobe Illustrator 18.1.1, SVG Export Plug-In . SVG Version: 6.00 Build 0)  -->
<svg version="1.1" id="Layer_1" xmlns="http://www.w3.org/2000/svg" xmlns:xlink="http://www.w3.org/1999/xlink" x="0px" y="0px"
	 viewBox="0 0 760 262.6" enable-background="new 0 0 760 262.6" xml:space="preserve">
<g>
	<g>
		<path d="M462.8,0v207.3H454v-30.1c-5.5,10.1-13.5,18.2-24,24.2c-10.5,6-21.3,9-32.3,9c-18.2,0-33.8-6.4-46.6-19.2
			c-12.8-12.8-19.2-28.2-19.2-46c0-17.9,6.4-33.2,19.2-46c12.8-12.8,28.3-19.2,46.6-19.2c11.4,0,22.4,3,33,9.1
			c10.6,6.1,18.4,14.2,23.4,24.3V0H462.8z M340.6,145.3c0,15.6,5.5,29,16.6,40.4c11.1,11.3,24.4,17,39.9,17c15.6,0,29-5.7,40.4-17
			c11.3-11.3,17-24.7,17-40.2s-5.7-29-17-40.5c-11.3-11.5-24.7-17.3-40.2-17.3c-15.5,0-28.8,5.7-39.9,17.1
			C346.2,116.2,340.6,129.7,340.6,145.3z"/>
		<path d="M543.3,202.1v7.7c-13.1,0-24.2-4.4-33.5-13.1c-9.2-8.7-13.8-19.9-13.8-33.6V0h8.8v163.1c0,11.2,3.7,20.6,11.2,27.9
			C523.5,198.4,532.6,202.1,543.3,202.1z"/>
		<path d="M616.5,210.7H614c-17.5,0-32.8-6.6-45.8-19.8c-13-13.2-19.5-28.5-19.5-46c0-17.5,6.4-32.7,19.4-45.5
			C581,86.6,597,80.2,616,80.2c19,0,35.3,7.6,48.9,22.7l-86.8,85.7c12,9.6,23.5,14.4,34.6,14.4c11.1,0,21-2.5,29.7-7.6
			c8.8-5.1,16-11.8,21.7-20.3v14.1C651,203.5,635.1,210.7,616.5,210.7z M613.6,87.9c-14.6,0-27.6,5.7-39,17s-17,24.4-17,39.1
			c0,14.7,4.9,27.6,14.7,38.7l80.4-79.9C641.3,92.9,628.3,87.9,613.6,87.9z"/>
		<path d="M718.3,87.4c-4.8,0-9,1.6-12.7,4.7c-3.7,3.1-5.5,7-5.5,11.6c0,4.6,2.1,8.8,6.2,12.7c4.1,3.9,9.1,7.4,14.9,10.6
			c5.8,3.2,11.7,6.7,17.6,10.4c5.9,3.7,10.9,8.4,15.1,14.1c4.1,5.7,6.2,12.3,6.2,19.6c0,10.9-4.1,20.1-12.3,27.8
			c-8.2,7.6-18.1,11.5-29.7,11.5c-7.4,0-14.2-1.6-20.6-4.8c-6.4-3.2-11-7.5-14-12.9v-13.3c7,15.5,18.2,23.2,33.7,23.2
			c9.6,0,17.6-2.9,24.2-8.8c6.5-5.9,9.8-12.5,9.8-19.8c0-7.3-2.1-13.4-6.2-18.4c-4.1-5-9.2-9.2-15.1-12.7c-5.9-3.5-11.8-7-17.6-10.4
			c-5.8-3.4-10.8-7.6-14.9-12.4c-4.1-4.9-6.2-10.6-6.2-17.1c0-6.5,2.6-12.1,7.9-16.6c5.3-4.5,12-6.8,20.3-6.8
			c8.3,0,15.4,3.2,21.3,9.7v11.3C734.7,91.8,727.3,87.4,718.3,87.4z"/>
	</g>
	<path stroke="#FFFFFF" stroke-width="14" stroke-miterlimit="10" d="M420.8,0v207.3h-8.8v-30.1c-5.5,10.1-13.5,18.2-24,24.2
		c-10.5,6-21.3,9-32.3,9c-18.2,0-33.8-6.4-46.6-19.2c-12.8-12.8-19.2-28.2-19.2-46c0-17.9,6.4-33.2,19.2-46
		c12.8-12.8,28.3-19.2,46.6-19.2c11.4,0,22.4,3,33,9.1c10.6,6.1,18.4,14.2,23.4,24.3V0H420.8z M298.6,145.3c0,15.6,5.5,29,16.6,40.4
		c11.1,11.3,24.4,17,39.9,17c15.6,0,29-5.7,40.4-17c11.3-11.3,17-24.7,17-40.2s-5.7-29-17-40.5c-11.3-11.5-24.7-17.3-40.2-17.3
		s-28.8,5.7-39.9,17.1C304.1,116.2,298.6,129.7,298.6,145.3z"/>
	<path d="M0,262.6V82.9h8.8v30.4c5-10.1,12.8-18.2,23.4-24.3c10.6-6.1,21.6-9.1,33-9.1c18.2,0,33.8,6.4,46.6,19.2
		c12.8,12.8,19.2,28.2,19.2,46c0,17.9-6.4,33.2-19.2,46C99,204,83.5,210.4,65.2,210.4c-11.1,0-21.8-3-32.3-9
		c-10.5-6-18.5-14.1-24-24.2v85.4H0z M8.3,145.4c0,15.5,5.7,28.9,17,40.2c11.3,11.3,24.8,17,40.4,17c15.6,0,28.9-5.7,39.9-17
		c11.1-11.3,16.6-24.8,16.6-40.4c0-15.6-5.6-29.1-16.7-40.5C94.3,93.3,81,87.6,65.5,87.6s-28.9,5.8-40.2,17.3
		C14,116.4,8.3,129.9,8.3,145.4z"/>
	<path d="M257.4,82.9h8.8v124.4h-8.8v-25.2c-9.4,18.8-25.4,28.2-48.1,28.2c-15.5,0-28.5-5.3-39-16c-10.5-10.7-15.8-23.7-15.8-39
		V82.9h8.8v72.4c0,12.7,4.5,23.8,13.4,33.2c8.9,9.4,19.8,14.1,32.5,14.1c12.7,0,23.9-4.7,33.6-14.1c9.7-9.4,14.5-20.5,14.5-33.2
		V82.9z"/>
	<path fill="#006699" d="M420.8,0v207.3h-8.8v-30.1c-5.5,10.1-13.5,18.2-24,24.2c-10.5,6-21.3,9-32.3,9c-18.2,0-33.8-6.4-46.6-19.2
		c-12.8-12.8-19.2-28.2-19.2-46c0-17.9,6.4-33.2,19.2-46c12.8-12.8,28.3-19.2,46.6-19.2c11.4,0,22.4,3,33,9.1
		c10.6,6.1,18.4,14.2,23.4,24.3V0H420.8z M298.6,145.3c0,15.6,5.5,29,16.6,40.4c11.1,11.3,24.4,17,39.9,17c15.6,0,29-5.7,40.4-17
		c11.3-11.3,17-24.7,17-40.2s-5.7-29-17-40.5c-11.3-11.5-24.7-17.3-40.2-17.3s-28.8,5.7-39.9,17.1
		C304.1,116.2,298.6,129.7,298.6,145.3z"/>
</g>
</svg>
